<mxfile host="app.diagrams.net" modified="2021-04-08T11:46:09.986Z" agent="5.0 (Macintosh; Intel Mac OS X 10_15_7) AppleWebKit/537.36 (KHTML, like Gecko) Chrome/89.0.4389.114 Safari/537.36" etag="HV2SBrQUsJETML6DF3MJ" version="14.5.3" type="github">
  <diagram id="X19uGrbth_yWl3H-nj2B" name="Page-1">
    <mxGraphModel dx="704" dy="794" grid="1" gridSize="10" guides="1" tooltips="1" connect="1" arrows="1" fold="1" page="1" pageScale="1" pageWidth="850" pageHeight="1100" math="0" shadow="0">
      <root>
        <mxCell id="0" />
        <mxCell id="1" parent="0" />
        <mxCell id="yFmYzC3CXPuOln1aspzT-47" value="" style="ellipse;whiteSpace=wrap;html=1;" parent="1" vertex="1">
          <mxGeometry x="500" y="60" width="60" height="20" as="geometry" />
        </mxCell>
        <mxCell id="yFmYzC3CXPuOln1aspzT-33" value="" style="whiteSpace=wrap;html=1;aspect=fixed;" parent="1" vertex="1">
          <mxGeometry x="120" y="450" width="210" height="210" as="geometry" />
        </mxCell>
        <mxCell id="yFmYzC3CXPuOln1aspzT-12" style="edgeStyle=orthogonalEdgeStyle;rounded=0;orthogonalLoop=1;jettySize=auto;html=1;entryX=0.013;entryY=0.625;entryDx=0;entryDy=0;entryPerimeter=0;exitX=1;exitY=0.5;exitDx=0;exitDy=0;" parent="1" source="yFmYzC3CXPuOln1aspzT-1" target="yFmYzC3CXPuOln1aspzT-6" edge="1">
          <mxGeometry relative="1" as="geometry" />
        </mxCell>
        <mxCell id="yFmYzC3CXPuOln1aspzT-13" style="edgeStyle=orthogonalEdgeStyle;rounded=0;orthogonalLoop=1;jettySize=auto;html=1;entryX=0;entryY=0.5;entryDx=0;entryDy=0;" parent="1" source="yFmYzC3CXPuOln1aspzT-1" target="yFmYzC3CXPuOln1aspzT-7" edge="1">
          <mxGeometry relative="1" as="geometry" />
        </mxCell>
        <mxCell id="yFmYzC3CXPuOln1aspzT-14" style="edgeStyle=orthogonalEdgeStyle;rounded=0;orthogonalLoop=1;jettySize=auto;html=1;entryX=0;entryY=0.5;entryDx=0;entryDy=0;" parent="1" source="yFmYzC3CXPuOln1aspzT-1" target="yFmYzC3CXPuOln1aspzT-8" edge="1">
          <mxGeometry relative="1" as="geometry" />
        </mxCell>
        <mxCell id="yFmYzC3CXPuOln1aspzT-1" value="" style="whiteSpace=wrap;html=1;aspect=fixed;" parent="1" vertex="1">
          <mxGeometry x="120" y="240" width="170" height="170" as="geometry" />
        </mxCell>
        <mxCell id="yFmYzC3CXPuOln1aspzT-2" value="K8s Cluster Service" style="text;html=1;strokeColor=none;fillColor=none;align=center;verticalAlign=middle;whiteSpace=wrap;rounded=0;" parent="1" vertex="1">
          <mxGeometry x="200" y="270" width="40" height="20" as="geometry" />
        </mxCell>
        <mxCell id="yFmYzC3CXPuOln1aspzT-3" value="" style="whiteSpace=wrap;html=1;aspect=fixed;" parent="1" vertex="1">
          <mxGeometry x="120" y="310" width="80" height="80" as="geometry" />
        </mxCell>
        <mxCell id="yFmYzC3CXPuOln1aspzT-4" value="API Services" style="text;html=1;strokeColor=none;fillColor=none;align=center;verticalAlign=middle;whiteSpace=wrap;rounded=0;" parent="1" vertex="1">
          <mxGeometry x="140" y="330" width="40" height="20" as="geometry" />
        </mxCell>
        <mxCell id="yFmYzC3CXPuOln1aspzT-6" value="" style="whiteSpace=wrap;html=1;aspect=fixed;" parent="1" vertex="1">
          <mxGeometry x="490" y="110" width="80" height="80" as="geometry" />
        </mxCell>
        <mxCell id="yFmYzC3CXPuOln1aspzT-7" value="" style="whiteSpace=wrap;html=1;aspect=fixed;" parent="1" vertex="1">
          <mxGeometry x="490" y="250" width="80" height="80" as="geometry" />
        </mxCell>
        <mxCell id="yFmYzC3CXPuOln1aspzT-8" value="" style="whiteSpace=wrap;html=1;aspect=fixed;" parent="1" vertex="1">
          <mxGeometry x="490" y="380" width="80" height="80" as="geometry" />
        </mxCell>
        <mxCell id="yFmYzC3CXPuOln1aspzT-9" value="Worker" style="text;html=1;strokeColor=none;fillColor=none;align=center;verticalAlign=middle;whiteSpace=wrap;rounded=0;" parent="1" vertex="1">
          <mxGeometry x="510" y="140" width="40" height="20" as="geometry" />
        </mxCell>
        <mxCell id="yFmYzC3CXPuOln1aspzT-10" value="Worker" style="text;html=1;strokeColor=none;fillColor=none;align=center;verticalAlign=middle;whiteSpace=wrap;rounded=0;" parent="1" vertex="1">
          <mxGeometry x="510" y="280" width="40" height="20" as="geometry" />
        </mxCell>
        <mxCell id="yFmYzC3CXPuOln1aspzT-11" value="Worker" style="text;html=1;strokeColor=none;fillColor=none;align=center;verticalAlign=middle;whiteSpace=wrap;rounded=0;" parent="1" vertex="1">
          <mxGeometry x="510" y="400" width="40" height="20" as="geometry" />
        </mxCell>
        <mxCell id="yFmYzC3CXPuOln1aspzT-15" value="" style="whiteSpace=wrap;html=1;aspect=fixed;" parent="1" vertex="1">
          <mxGeometry x="490" y="150" width="20" height="20" as="geometry" />
        </mxCell>
        <mxCell id="yFmYzC3CXPuOln1aspzT-16" value="" style="whiteSpace=wrap;html=1;aspect=fixed;" parent="1" vertex="1">
          <mxGeometry x="490" y="290" width="20" height="20" as="geometry" />
        </mxCell>
        <mxCell id="yFmYzC3CXPuOln1aspzT-17" value="" style="whiteSpace=wrap;html=1;aspect=fixed;" parent="1" vertex="1">
          <mxGeometry x="490" y="430" width="20" height="20" as="geometry" />
        </mxCell>
        <mxCell id="yFmYzC3CXPuOln1aspzT-18" value="K" style="text;html=1;strokeColor=none;fillColor=none;align=center;verticalAlign=middle;whiteSpace=wrap;rounded=0;" parent="1" vertex="1">
          <mxGeometry x="480" y="150" width="40" height="20" as="geometry" />
        </mxCell>
        <mxCell id="yFmYzC3CXPuOln1aspzT-20" value="K" style="text;html=1;strokeColor=none;fillColor=none;align=center;verticalAlign=middle;whiteSpace=wrap;rounded=0;" parent="1" vertex="1">
          <mxGeometry x="480" y="290" width="40" height="20" as="geometry" />
        </mxCell>
        <mxCell id="yFmYzC3CXPuOln1aspzT-21" value="K" style="text;html=1;strokeColor=none;fillColor=none;align=center;verticalAlign=middle;whiteSpace=wrap;rounded=0;" parent="1" vertex="1">
          <mxGeometry x="480" y="430" width="40" height="20" as="geometry" />
        </mxCell>
        <mxCell id="yFmYzC3CXPuOln1aspzT-23" value="App1.yaml&lt;br&gt;" style="text;html=1;strokeColor=none;fillColor=none;align=center;verticalAlign=middle;whiteSpace=wrap;rounded=0;" parent="1" vertex="1">
          <mxGeometry x="200" y="430" width="40" height="20" as="geometry" />
        </mxCell>
        <mxCell id="yFmYzC3CXPuOln1aspzT-24" value="Deployment&lt;br&gt;&amp;nbsp; - Pod1&lt;br&gt;&amp;nbsp; &amp;nbsp; - Container Image1&lt;br&gt;&amp;nbsp; &amp;nbsp; - Container Image2&lt;br&gt;&amp;nbsp; &amp;nbsp; - Replica = 3&lt;br&gt;&lt;br&gt;Deployment&lt;br&gt;&amp;nbsp; - Pod2&amp;nbsp;&lt;br&gt;&amp;nbsp; &amp;nbsp; &amp;nbsp;- Container Image3&lt;br&gt;&amp;nbsp; &amp;nbsp; &amp;nbsp;- Container Image4&lt;br&gt;&amp;nbsp; &amp;nbsp; &amp;nbsp;- Replica = 2" style="text;html=1;strokeColor=none;fillColor=none;align=left;verticalAlign=middle;whiteSpace=wrap;rounded=0;" parent="1" vertex="1">
          <mxGeometry x="125" y="500" width="190" height="80" as="geometry" />
        </mxCell>
        <mxCell id="yFmYzC3CXPuOln1aspzT-31" style="edgeStyle=orthogonalEdgeStyle;rounded=0;orthogonalLoop=1;jettySize=auto;html=1;exitX=0.75;exitY=1;exitDx=0;exitDy=0;" parent="1" source="yFmYzC3CXPuOln1aspzT-30" edge="1">
          <mxGeometry relative="1" as="geometry">
            <mxPoint x="620" y="100" as="targetPoint" />
          </mxGeometry>
        </mxCell>
        <mxCell id="yFmYzC3CXPuOln1aspzT-30" value="Container Host, Kublet Process" style="text;html=1;strokeColor=none;fillColor=none;align=center;verticalAlign=middle;whiteSpace=wrap;rounded=0;" parent="1" vertex="1">
          <mxGeometry x="590" y="80" width="40" height="20" as="geometry" />
        </mxCell>
        <mxCell id="yFmYzC3CXPuOln1aspzT-34" value="&lt;h3&gt;Enforcing - Desired State Management&lt;/h3&gt;" style="text;html=1;strokeColor=none;fillColor=none;align=center;verticalAlign=middle;whiteSpace=wrap;rounded=0;" parent="1" vertex="1">
          <mxGeometry x="70" y="170" width="220" height="30" as="geometry" />
        </mxCell>
        <mxCell id="yFmYzC3CXPuOln1aspzT-35" value="Container Host, Kublet Process" style="text;html=1;strokeColor=none;fillColor=none;align=center;verticalAlign=middle;whiteSpace=wrap;rounded=0;" parent="1" vertex="1">
          <mxGeometry x="590" y="240" width="40" height="20" as="geometry" />
        </mxCell>
        <mxCell id="yFmYzC3CXPuOln1aspzT-36" value="Container Host, Kublet Process" style="text;html=1;strokeColor=none;fillColor=none;align=center;verticalAlign=middle;whiteSpace=wrap;rounded=0;" parent="1" vertex="1">
          <mxGeometry x="590" y="370" width="40" height="20" as="geometry" />
        </mxCell>
        <mxCell id="yFmYzC3CXPuOln1aspzT-37" value="P1R1" style="text;html=1;strokeColor=none;fillColor=none;align=center;verticalAlign=middle;whiteSpace=wrap;rounded=0;" parent="1" vertex="1">
          <mxGeometry x="490" y="90" width="40" height="20" as="geometry" />
        </mxCell>
        <mxCell id="yFmYzC3CXPuOln1aspzT-38" value="P1R2" style="text;html=1;strokeColor=none;fillColor=none;align=center;verticalAlign=middle;whiteSpace=wrap;rounded=0;" parent="1" vertex="1">
          <mxGeometry x="490" y="230" width="40" height="20" as="geometry" />
        </mxCell>
        <mxCell id="yFmYzC3CXPuOln1aspzT-39" value="P1R3" style="text;html=1;strokeColor=none;fillColor=none;align=center;verticalAlign=middle;whiteSpace=wrap;rounded=0;" parent="1" vertex="1">
          <mxGeometry x="490" y="360" width="40" height="20" as="geometry" />
        </mxCell>
        <mxCell id="yFmYzC3CXPuOln1aspzT-40" value="P2R1" style="text;html=1;strokeColor=none;fillColor=none;align=center;verticalAlign=middle;whiteSpace=wrap;rounded=0;" parent="1" vertex="1">
          <mxGeometry x="530" y="90" width="40" height="20" as="geometry" />
        </mxCell>
        <mxCell id="yFmYzC3CXPuOln1aspzT-42" value="P2R2" style="text;html=1;strokeColor=none;fillColor=none;align=center;verticalAlign=middle;whiteSpace=wrap;rounded=0;" parent="1" vertex="1">
          <mxGeometry x="530" y="360" width="40" height="20" as="geometry" />
        </mxCell>
        <mxCell id="yFmYzC3CXPuOln1aspzT-44" value="" style="endArrow=none;html=1;" parent="1" edge="1">
          <mxGeometry width="50" height="50" relative="1" as="geometry">
            <mxPoint x="460" y="325" as="sourcePoint" />
            <mxPoint x="550" y="230" as="targetPoint" />
          </mxGeometry>
        </mxCell>
        <mxCell id="yFmYzC3CXPuOln1aspzT-45" value="" style="endArrow=none;html=1;" parent="1" edge="1">
          <mxGeometry width="50" height="50" relative="1" as="geometry">
            <mxPoint x="480" y="240" as="sourcePoint" />
            <mxPoint x="560" y="340" as="targetPoint" />
          </mxGeometry>
        </mxCell>
        <mxCell id="yFmYzC3CXPuOln1aspzT-46" value="P1R2" style="text;html=1;strokeColor=none;fillColor=none;align=center;verticalAlign=middle;whiteSpace=wrap;rounded=0;" parent="1" vertex="1">
          <mxGeometry x="510" y="60" width="40" height="20" as="geometry" />
        </mxCell>
        <mxCell id="yFmYzC3CXPuOln1aspzT-48" value="&lt;h1&gt;&lt;font style=&quot;font-size: 24px&quot; face=&quot;Times New Roman&quot;&gt;Kubernetes in 5 Mins&lt;/font&gt;&lt;/h1&gt;" style="text;html=1;strokeColor=none;fillColor=none;align=center;verticalAlign=middle;whiteSpace=wrap;rounded=0;" parent="1" vertex="1">
          <mxGeometry x="110" y="30" width="280" height="20" as="geometry" />
        </mxCell>
      </root>
    </mxGraphModel>
  </diagram>
</mxfile>
